<svg width="98" height="98" viewBox="0 0 98 98" fill="none" xmlns="http://www.w3.org/2000/svg">
<path d="M94.5351 10.605L74.3541 0.888988C73.2144 0.339481 71.932 0.158144 70.6847 0.370113C69.4373 0.582082 68.2868 1.17686 67.3926 2.07199L1.3301 62.3C0.528569 63.0273 0.0487755 64.0432 -0.00373441 65.1243C-0.0562443 66.2053 0.32283 67.2629 1.0501 68.0645C1.1376 68.159 1.2251 68.25 1.3196 68.334L6.7131 73.234C7.41787 73.8754 8.32505 74.2497 9.27708 74.2919C10.2291 74.3341 11.1658 74.0416 11.9246 73.465L91.4971 13.125C92.0981 12.6689 92.8145 12.3897 93.5657 12.3186C94.3168 12.2476 95.0729 12.3877 95.7487 12.7231C96.4246 13.0585 96.9934 13.5758 97.3911 14.217C97.7889 14.8581 97.9998 15.5975 98.0001 16.352V16.1175C98 14.9656 97.6748 13.8372 97.0618 12.862C96.4488 11.8868 95.573 11.1045 94.5351 10.605Z" fill="#0065A9"/>
<path d="M94.5351 87.395L74.3541 97.1145C73.2141 97.6625 71.9321 97.843 70.6851 97.6311C69.4381 97.4191 68.2876 96.8253 67.3926 95.9315L1.3301 35.7C0.528569 34.9727 0.0487755 33.9568 -0.00373441 32.8758C-0.0562443 31.7947 0.32283 30.7371 1.0501 29.9355C1.1376 29.841 1.2251 29.75 1.3196 29.666L6.7131 24.766C7.41859 24.1219 8.32784 23.7459 9.28222 23.7037C10.2366 23.6615 11.1755 23.9557 11.9351 24.535L91.4971 84.875C92.0981 85.3311 92.8145 85.6104 93.5657 85.6814C94.3168 85.7524 95.0729 85.6123 95.7487 85.2769C96.4246 84.9415 96.9934 84.4242 97.3911 83.783C97.7889 83.1419 97.9998 82.4025 98.0001 81.648V81.9C97.9963 83.0488 97.6694 84.1733 97.0566 85.1451C96.4439 86.1168 95.5701 86.8965 94.5351 87.395Z" fill="#007ACC"/>
<path d="M74.3539 97.1144C73.2139 97.6624 71.9319 97.8428 70.6849 97.6309C69.4379 97.419 68.2874 96.8252 67.3924 95.9314C67.895 96.4275 68.5329 96.7642 69.226 96.8993C69.9192 97.0344 70.6368 96.9619 71.2889 96.691C71.941 96.4201 72.4987 95.9627 72.892 95.3762C73.2853 94.7896 73.4968 94.1001 73.4999 93.3939V4.60591C73.5005 3.89642 73.2905 3.20272 72.8965 2.61268C72.5025 2.02264 71.9423 1.56282 71.2867 1.29146C70.6312 1.02009 69.9098 0.949404 69.2141 1.08834C68.5183 1.22728 67.8795 1.56959 67.3784 2.07191C68.2728 1.17711 69.423 0.582294 70.6702 0.369736C71.9173 0.157178 73.1997 0.337377 74.3399 0.885413L94.5174 10.5874C95.5586 11.0844 96.438 11.8657 97.0542 12.8411C97.6704 13.8165 97.9983 14.9462 97.9999 16.0999V81.8999C98.0002 83.0527 97.6748 84.1822 97.0611 85.1581C96.4474 86.134 95.5705 86.9167 94.5314 87.4159L74.3539 97.1144Z" fill="#1F9CF0"/>
</svg>
